<?xml version="1.0" encoding="UTF-8"?>
<!DOCTYPE svg PUBLIC "-//W3C//DTD SVG 1.0//EN" "http://www.w3.org/TR/2001/REC-SVG-20010904/DTD/svg10.dtd">
<!-- Creator: CorelDRAW -->
<svg xmlns="http://www.w3.org/2000/svg" xml:space="preserve" width="250px" height="250px" version="1.0" style="shape-rendering:geometricPrecision; text-rendering:geometricPrecision; image-rendering:optimizeQuality; fill-rule:evenodd; clip-rule:evenodd"
viewBox="0 0 22.35 22.35"
 xmlns:xlink="http://www.w3.org/1999/xlink"
 xmlns:xodm="http://www.corel.com/coreldraw/odm/2003">
 <defs>
  <style type="text/css">
   <![CDATA[
    .fil0 {fill:#393939}
   ]]>
  </style>
 </defs>
 <g id="Layer_x0020_1">
  <metadata id="CorelCorpID_0Corel-Layer"/>
  <path class="fil0" d="M1.72 0l3.97 0 6.35 8.01 0.01 0.01 0.09 0.12 0.89 1.12c-1.13,0.68 -1.69,1.57 -1.69,2.66l0 3.94 2.31 0c0.82,0 1.23,-0.31 1.23,-0.93 0,-0.62 -0.41,-0.93 -1.23,-0.93l-0.46 0 0 -2.12c0,-0.48 0.32,-0.88 0.96,-1.21l0.03 0.03 3.78 4.77c0.32,0.4 0.64,0.59 0.97,0.59 0.23,0 0.43,-0.08 0.61,-0.25 0.17,-0.16 0.26,-0.36 0.26,-0.58 0,-0.29 -0.13,-0.59 -0.38,-0.9l-1.84 -2.31c1.52,-0.63 2.27,-1.48 2.27,-2.54l0 -3.06 -2.47 0c-0.83,0 -1.24,0.31 -1.24,0.93 0,0.61 0.41,0.92 1.24,0.92l0.61 0 0 0.9c0,0.56 -0.52,1.02 -1.56,1.38l-2.92 -3.67 -0.06 -0.07 -5.39 -6.81 12.57 0c0.95,0 1.72,0.77 1.72,1.72l0 18.91c0,0.95 -0.77,1.72 -1.72,1.72l-18.91 0c-0.95,0 -1.72,-0.77 -1.72,-1.72l0 -12.36 1.93 0 0.64 0 0 4.55c0,1.12 0.37,1.93 1.1,2.42 0.73,0.48 1.63,0.73 2.7,0.73 2.45,0 3.67,-1.04 3.67,-3.11l0 -3.42c0,-0.99 -0.2,-1.75 -0.61,-2.26 -0.4,-0.51 -1.26,-0.76 -2.55,-0.76l-1.15 0 -3.8 0 -1.93 0 0 -4.7c0,-0.95 0.77,-1.72 1.72,-1.72zm10.32 8.01l0.1 0.13 -0.09 -0.12 -0.01 -0.01zm-3.85 4.43l0 -2.88c0,-0.44 -0.07,-0.77 -0.22,-0.98 -0.15,-0.2 -0.53,-0.31 -1.14,-0.31l-1.1 0 -1.31 0 0 4.17c0,0.61 0.15,1.03 0.45,1.29 0.29,0.26 0.78,0.39 1.46,0.39 1.24,0 1.86,-0.56 1.86,-1.68z"/>
 </g>
</svg>
