<svg width="40" height="40" viewBox="0 0 60 60" fill="none" xmlns="http://www.w3.org/2000/svg"><path fill-rule="evenodd" clip-rule="evenodd" d="M4.606 0h10.678l17.048 21.51.01.02.25.317 2.4 3.026c-3.026 1.822-4.54 4.202-4.54 7.131v10.572h6.188c2.216 0 3.315-.838 3.315-2.505 0-1.648-1.099-2.467-3.315-2.467h-1.214v-5.696c0-1.291.857-2.38 2.563-3.257l.077.087 10.158 12.788c.848 1.07 1.705 1.6 2.602 1.6.607 0 1.146-.222 1.619-.675.472-.453.703-.983.703-1.57 0-.762-.337-1.572-1.012-2.4l-4.924-6.216c4.057-1.696 6.09-3.97 6.09-6.804v-8.23h-6.65c-2.216 0-3.314.838-3.314 2.496 0 1.648 1.098 2.477 3.315 2.477H48.3v2.428c0 1.484-1.398 2.718-4.202 3.7l-7.825-9.858-.154-.183L21.625 0h33.769A4.619 4.619 0 0 1 60 4.606v50.788A4.619 4.619 0 0 1 55.394 60H4.606A4.619 4.619 0 0 1 0 55.394v-33.19h6.91v12.229c0 2.997.983 5.166 2.949 6.467 1.956 1.31 4.375 1.965 7.227 1.965 6.583 0 9.878-2.785 9.878-8.345v-9.165c0-2.68-.549-4.703-1.638-6.071-1.099-1.369-3.383-2.053-6.852-2.053H0V4.606A4.619 4.619 0 0 1 4.606 0Zm27.726 21.51.26.337-.25-.318-.01-.02ZM21.992 33.41v-7.738c0-1.205-.203-2.072-.598-2.63-.385-.56-1.416-.84-3.064-.84H11.873v11.208c0 1.61.395 2.766 1.195 3.45.79.685 2.1 1.032 3.932 1.032 3.324 0 4.992-1.494 4.992-4.482Z" fill="#393939"/></svg>