<svg xmlns="http://www.w3.org/2000/svg" xmlns:xlink="http://www.w3.org/1999/xlink"><symbol id="burger"><g fill="none"><path d="M0 0h30v2.74H0V0Zm0 12.326h30v2.74H0v-2.74Zm0 12.326h30v2.74H0v-2.74Z" fill="#393939"/></g></symbol><symbol id="close-icon"><g fill="none"><path fill="#fff" d="M0 0h24v24H0z"/><path d="M7.26 16.77h1.767a.489.489 0 0 0 .369-.171L12 13.494l2.604 3.105a.48.48 0 0 0 .369.171h1.767a.239.239 0 0 0 .183-.393L13.254 12l3.672-4.377a.239.239 0 0 0-.183-.393h-1.767a.489.489 0 0 0-.369.171L12 10.506 9.396 7.401a.48.48 0 0 0-.369-.171H7.26a.239.239 0 0 0-.183.393L10.746 12l-3.669 4.377a.239.239 0 0 0 .183.393Z" fill="#434242"/></g></symbol><symbol id="facebook"><g fill="none"><path d="M20 10.025c0-5.52-4.48-10-10-10s-10 4.48-10 10c0 4.84 3.44 8.87 8 9.8v-6.8H6v-3h2v-2.5c0-1.93 1.57-3.5 3.5-3.5H14v3h-2c-.55 0-1 .45-1 1v2h3v3h-3v6.95c5.05-.5 9-4.76 9-9.95Z" fill="#393939"/></g></symbol><symbol id="heart-icon"><g fill="none"><path d="m12.003 6.72-4.997 4.949-4.998-4.95a3.332 3.332 0 1 1 4.998-4.375 3.332 3.332 0 1 1 4.997 4.38" stroke="#D9D9D9" stroke-linecap="round" stroke-linejoin="round"/><path d="M7.006 2.34 4.81 4.534a.666.666 0 0 0 0 .943l.362.361c.46.46 1.206.46 1.666 0l.666-.666a2.12 2.12 0 0 1 2.999 0l1.499 1.5M7.339 8.67l1.332 1.333m.334-2.999 1.332 1.333" stroke="#D9D9D9" stroke-linecap="round" stroke-linejoin="round"/></g></symbol><symbol id="instagram"><g fill="none"><path d="M5.8 0h8.4C17.4 0 20 2.6 20 5.8v8.4a5.8 5.8 0 0 1-5.8 5.8H5.8C2.6 20 0 17.4 0 14.2V5.8A5.8 5.8 0 0 1 5.8 0Zm-.2 2A3.6 3.6 0 0 0 2 5.6v8.8C2 16.39 3.61 18 5.6 18h8.8a3.6 3.6 0 0 0 3.6-3.6V5.6C18 3.61 16.39 2 14.4 2H5.6Zm9.65 1.5a1.25 1.25 0 1 1 0 2.5 1.25 1.25 0 0 1 0-2.5ZM10 5a5 5 0 1 1 0 10 5 5 0 0 1 0-10Zm0 2a3 3 0 1 0 0 6 3 3 0 0 0 0-6Z" fill="#393939"/></g></symbol><symbol id="linkedIn"><g fill="none"><path d="M17.778 0A2.222 2.222 0 0 1 20 2.222v15.556A2.222 2.222 0 0 1 17.778 20H2.222A2.222 2.222 0 0 1 0 17.778V2.222A2.222 2.222 0 0 1 2.222 0h15.556Zm-.556 17.222v-5.889A3.622 3.622 0 0 0 13.6 7.711c-.944 0-2.044.578-2.578 1.445V7.922h-3.1v9.3h3.1v-5.478a1.55 1.55 0 0 1 1.545-1.555 1.556 1.556 0 0 1 1.555 1.555v5.478h3.1ZM4.312 6.178A1.867 1.867 0 0 0 6.177 4.31 1.873 1.873 0 0 0 4.31 2.433a1.878 1.878 0 0 0-1.878 1.878c0 1.033.845 1.867 1.878 1.867Zm1.544 11.044v-9.3H2.778v9.3h3.078Z" fill="#393939"/></g></symbol><symbol id="logo" viewBox="0 0 60 60"><g fill="none"><path fill-rule="evenodd" clip-rule="evenodd" d="M4.606 0h10.678l17.048 21.51.01.02.25.317 2.4 3.026c-3.026 1.822-4.54 4.202-4.54 7.131v10.572h6.188c2.216 0 3.315-.838 3.315-2.505 0-1.648-1.099-2.467-3.315-2.467h-1.214v-5.696c0-1.291.857-2.38 2.563-3.257l.077.087 10.158 12.788c.848 1.07 1.705 1.6 2.602 1.6.607 0 1.146-.222 1.619-.675.472-.453.703-.983.703-1.57 0-.762-.337-1.572-1.012-2.4l-4.924-6.216c4.057-1.696 6.09-3.97 6.09-6.804v-8.23h-6.65c-2.216 0-3.314.838-3.314 2.496 0 1.648 1.098 2.477 3.315 2.477H48.3v2.428c0 1.484-1.398 2.718-4.202 3.7l-7.825-9.858-.154-.183L21.625 0h33.769A4.619 4.619 0 0 1 60 4.606v50.788A4.619 4.619 0 0 1 55.394 60H4.606A4.619 4.619 0 0 1 0 55.394v-33.19h6.91v12.229c0 2.997.983 5.166 2.949 6.467 1.956 1.31 4.375 1.965 7.227 1.965 6.583 0 9.878-2.785 9.878-8.345v-9.165c0-2.68-.549-4.703-1.638-6.071-1.099-1.369-3.383-2.053-6.852-2.053H0V4.606A4.619 4.619 0 0 1 4.606 0Zm27.726 21.51.26.337-.25-.318-.01-.02ZM21.992 33.41v-7.738c0-1.205-.203-2.072-.598-2.63-.385-.56-1.416-.84-3.064-.84H11.873v11.208c0 1.61.395 2.766 1.195 3.45.79.685 2.1 1.032 3.932 1.032 3.324 0 4.992-1.494 4.992-4.482Z" fill="#393939"/></g></symbol><symbol id="plane"><g fill="none"><path d="M6.594 9.406 15 1m0 0-4.967 13.755a.42.42 0 0 1-.764 0l-2.675-5.35-5.349-2.674a.42.42 0 0 1 0-.764L15 1Z" stroke="#fff" stroke-width="1.5" stroke-linecap="round" stroke-linejoin="round"/></g></symbol><symbol id="safari-pinned-tab" viewBox="0 0 22.35 22.35"><g style="shape-rendering:geometricPrecision;text-rendering:geometricPrecision;image-rendering:optimizeQuality;fill-rule:evenodd;clip-rule:evenodd"><path d="M1.72 0h3.97l6.35 8.01.01.01.09.12.89 1.12c-1.13.68-1.69 1.57-1.69 2.66v3.94h2.31c.82 0 1.23-.31 1.23-.93 0-.62-.41-.93-1.23-.93h-.46v-2.12c0-.48.32-.88.96-1.21l.03.03 3.78 4.77c.32.4.64.59.97.59.23 0 .43-.08.61-.25.17-.16.26-.36.26-.58 0-.29-.13-.59-.38-.9l-1.84-2.31c1.52-.63 2.27-1.48 2.27-2.54V6.42h-2.47c-.83 0-1.24.31-1.24.93 0 .61.41.92 1.24.92h.61v.9c0 .56-.52 1.02-1.56 1.38l-2.92-3.67-.06-.07L8.06 0h12.57c.95 0 1.72.77 1.72 1.72v18.91c0 .95-.77 1.72-1.72 1.72H1.72c-.95 0-1.72-.77-1.72-1.72V8.27h2.57v4.55c0 1.12.37 1.93 1.1 2.42.73.48 1.63.73 2.7.73 2.45 0 3.67-1.04 3.67-3.11V9.44c0-.99-.2-1.75-.61-2.26-.4-.51-1.26-.76-2.55-.76H0v-4.7C0 .77.77 0 1.72 0zm10.32 8.01.1.13-.09-.12-.01-.01zm-3.85 4.43V9.56c0-.44-.07-.77-.22-.98-.15-.2-.53-.31-1.14-.31H4.42v4.17c0 .61.15 1.03.45 1.29.29.26.78.39 1.46.39 1.24 0 1.86-.56 1.86-1.68z" style="fill:#393939"/></g></symbol></svg>