<svg width="24" height="24" viewBox="0 0 24 24" fill="none" xmlns="http://www.w3.org/2000/svg">
<rect width="24" height="24" fill="white"/>
<path d="M7.26002 16.77H9.02702C9.16802 16.77 9.30302 16.707 9.39602 16.599L12 13.494L14.604 16.599C14.694 16.707 14.829 16.77 14.973 16.77H16.74C16.944 16.77 17.055 16.533 16.923 16.377L13.254 12L16.926 7.62298C17.058 7.46698 16.947 7.22998 16.743 7.22998H14.976C14.835 7.22998 14.7 7.29298 14.607 7.40098L12 10.506L9.39602 7.40098C9.30602 7.29298 9.17102 7.22998 9.02702 7.22998H7.26002C7.05602 7.22998 6.94502 7.46698 7.07702 7.62298L10.746 12L7.07702 16.377C7.04745 16.4118 7.02848 16.4543 7.02236 16.4995C7.01624 16.5447 7.02323 16.5908 7.0425 16.6322C7.06176 16.6735 7.0925 16.7085 7.13106 16.7329C7.16961 16.7574 7.21437 16.7702 7.26002 16.77Z" fill="#434242"/>
</svg>
