<svg width="14" height="13" viewBox="0 0 14 13" fill="none" xmlns="http://www.w3.org/2000/svg">
<path d="M12.003 6.71931L7.00555 11.6687L2.00814 6.71931C1.67852 6.39855 1.41888 6.01302 1.24557 5.58698C1.07226 5.16095 0.989044 4.70365 1.00116 4.24388C1.01327 3.78411 1.12044 3.33182 1.31594 2.9155C1.51143 2.49919 1.79101 2.12786 2.13707 1.8249C2.48312 1.52194 2.88816 1.29391 3.32667 1.15518C3.76518 1.01644 4.22766 0.97001 4.685 1.0188C5.14234 1.06758 5.58462 1.21053 5.984 1.43865C6.38338 1.66676 6.73119 1.9751 7.00555 2.34424C7.2811 1.97778 7.62932 1.67214 8.02842 1.44644C8.42752 1.22075 8.86892 1.07986 9.32497 1.0326C9.78103 0.985339 10.2419 1.03272 10.6788 1.17178C11.1157 1.31083 11.5192 1.53857 11.8641 1.84074C12.2089 2.14292 12.4877 2.51301 12.6829 2.92787C12.8781 3.34272 12.9856 3.79341 12.9987 4.25173C13.0117 4.71004 12.93 5.16611 12.7587 5.59139C12.5873 6.01668 12.3301 6.40202 12.003 6.72331" stroke="#D9D9D9" stroke-linecap="round" stroke-linejoin="round"/>
<path d="M7.00555 2.34024L4.81136 4.53444C4.68644 4.65939 4.61627 4.82884 4.61627 5.00553C4.61627 5.18221 4.68644 5.35166 4.81136 5.47662L5.17317 5.83843C5.63293 6.29819 6.37921 6.29819 6.83897 5.83843L7.50529 5.17211C7.90291 4.77449 8.4422 4.55111 9.00452 4.55111C9.56683 4.55111 10.1061 4.77449 10.5037 5.17211L12.003 6.67133M7.33871 8.67029L8.67136 10.0029M9.00452 7.00449L10.3372 8.33713" stroke="#D9D9D9" stroke-linecap="round" stroke-linejoin="round"/>
</svg>
