<svg width="40" height="40" viewBox="0 0 60 60" fill="none" xmlns="http://www.w3.org/2000/svg">
<path fill-rule="evenodd" clip-rule="evenodd" d="M4.60649 0H15.2843L32.3322 21.5098L32.3418 21.5291L32.5924 21.8471L34.992 24.8731C31.966 26.6945 30.4529 29.0748 30.4529 32.0045V42.5763H36.6399C38.8564 42.5763 39.955 41.7379 39.955 40.0707C39.955 38.4227 38.8564 37.6036 36.6399 37.6036H35.4256V31.9081C35.4256 30.6168 36.2833 29.5278 37.9891 28.6508L38.0662 28.7376L48.2236 41.5259C49.0716 42.5956 49.9293 43.1256 50.8256 43.1256C51.4327 43.1256 51.9724 42.904 52.4446 42.451C52.9168 41.9981 53.1481 41.468 53.1481 40.8802C53.1481 40.1189 52.8108 39.3094 52.1362 38.4806L47.2117 32.2647C51.2689 30.5686 53.3023 28.2943 53.3023 25.461V17.231H46.6527C44.4362 17.231 43.3376 18.0694 43.3376 19.727C43.3376 21.3749 44.4362 22.2037 46.6527 22.2037H48.3007V24.6322C48.3007 26.1163 46.9033 27.3498 44.0989 28.3328L36.2737 18.4741L36.1195 18.291L21.6254 0H55.3935C57.928 0 60 2.07196 60 4.60649V55.3935C60 57.928 57.928 60 55.3935 60H4.60649C2.07196 60 0 57.928 0 55.3935V22.2037H5.18471H6.90973V34.433C6.90973 37.4301 7.89271 39.5985 9.85866 40.8995C11.815 42.2101 14.2339 42.8654 17.0864 42.8654C23.6685 42.8654 26.9643 40.0803 26.9643 34.5198V25.355C26.9643 22.6759 26.415 20.6521 25.3261 19.2837C24.2274 17.9152 21.9435 17.231 18.4741 17.231H15.371H5.18471H0V4.60649C0 2.07196 2.07196 0 4.60649 0V0ZM32.3322 21.5098L32.5924 21.8471L32.3418 21.5291L32.3322 21.5098V21.5098ZM21.9916 33.4115V25.673C21.9916 24.4684 21.7893 23.601 21.3942 23.0421C21.0087 22.4831 19.9775 22.2037 18.3296 22.2037H15.371H11.8728V33.4115C11.8728 35.0209 12.2679 36.1773 13.0678 36.8616C13.858 37.5458 15.1686 37.8927 16.9997 37.8927C20.3244 37.8927 21.9916 36.399 21.9916 33.4115Z" fill="#393939"/>
</svg>
