<svg width="16" height="16" viewBox="0 0 16 16" fill="none" xmlns="http://www.w3.org/2000/svg">
<path d="M6.59429 9.40571L15 1M15 1L10.033 14.7548C9.99946 14.828 9.94563 14.89 9.8779 14.9334C9.81017 14.9769 9.73139 15 9.65091 15C9.57043 15 9.49165 14.9769 9.42392 14.9334C9.35619 14.89 9.30236 14.828 9.26883 14.7548L6.59429 9.40571L1.2452 6.73117C1.17203 6.69764 1.11004 6.64381 1.06657 6.57608C1.02311 6.50835 1 6.42957 1 6.34909C1 6.26861 1.02311 6.18983 1.06657 6.1221C1.11004 6.05437 1.17203 6.00054 1.2452 5.96701L15 1Z" stroke="white" stroke-width="1.5" stroke-linecap="round" stroke-linejoin="round"/>
</svg>
