<svg xmlns="http://www.w3.org/2000/svg" xml:space="preserve" width="250" height="250" version="1.0" style="shape-rendering:geometricPrecision;text-rendering:geometricPrecision;image-rendering:optimizeQuality;fill-rule:evenodd;clip-rule:evenodd" viewBox="0 0 22.35 22.35"><path d="M1.72 0h3.97l6.35 8.01.01.01.09.12.89 1.12c-1.13.68-1.69 1.57-1.69 2.66v3.94h2.31c.82 0 1.23-.31 1.23-.93 0-.62-.41-.93-1.23-.93h-.46v-2.12c0-.48.32-.88.96-1.21l.03.03 3.78 4.77c.32.4.64.59.97.59.23 0 .43-.08.61-.25.17-.16.26-.36.26-.58 0-.29-.13-.59-.38-.9l-1.84-2.31c1.52-.63 2.27-1.48 2.27-2.54V6.42h-2.47c-.83 0-1.24.31-1.24.93 0 .61.41.92 1.24.92h.61v.9c0 .56-.52 1.02-1.56 1.38l-2.92-3.67-.06-.07L8.06 0h12.57c.95 0 1.72.77 1.72 1.72v18.91c0 .95-.77 1.72-1.72 1.72H1.72c-.95 0-1.72-.77-1.72-1.72V8.27h2.57v4.55c0 1.12.37 1.93 1.1 2.42.73.48 1.63.73 2.7.73 2.45 0 3.67-1.04 3.67-3.11V9.44c0-.99-.2-1.75-.61-2.26-.4-.51-1.26-.76-2.55-.76H0v-4.7C0 .77.77 0 1.72 0zm10.32 8.01.1.13-.09-.12-.01-.01zm-3.85 4.43V9.56c0-.44-.07-.77-.22-.98-.15-.2-.53-.31-1.14-.31H4.42v4.17c0 .61.15 1.03.45 1.29.29.26.78.39 1.46.39 1.24 0 1.86-.56 1.86-1.68z" style="fill:#393939"/></svg>